<?xml version="1.0" encoding="utf-8"?>
<!-- Generator: Adobe Illustrator 22.0.1, SVG Export Plug-In . SVG Version: 6.00 Build 0)  -->
<svg version="1.1" id="Layer_1" xmlns="http://www.w3.org/2000/svg" xmlns:xlink="http://www.w3.org/1999/xlink" x="0px" y="0px"
	 viewBox="0 0 649 149.1" style="enable-background:new 0 0 649 149.1;" xml:space="preserve">
<style type="text/css">
	.st0{fill:#BFD730;}
	.st1{fill:#BCD331;}
	.st2{fill:#377D3D;}
</style>
<path class="st0" d="M507.7,115.9l0.6-2.7l-0.6-0.9c0-0.3-0.9-18.1-0.3-18.4h-0.6h-0.6c-0.3-0.9,1.2-1.5,0.9-3
	c-0.9-3.3-0.9-6.9,0-10.3c0.6-1.5,15.7-10.6,18.4-14.5c1.8-2.1,3.6-3.3,5.1-5.1c6.9-5.7,7.8-8.2,7.8-8.8c0.6-0.9,1.2-2.1,1.5-3l0,0
	h0.6c0.9-0.3,3.3-4.2,3.6-5.1c-0.3-0.3-0.6,0-0.9,0c-0.3,0.3-0.3,0.6-0.6,0.6h-0.3h-0.3c0.3-0.3,0.6-1.2,0.9-1.2
	c0.6,0,0.9,0.3,1.5,0h0.3c0.6-0.6,0.6-1.8,0.9-1.8c1.2-0.3,1.2-1.5,1.2-2.1l-0.3-0.3c0-0.6,1.8-0.9,1.5-1.8h-0.3
	c0-0.6,4.2-8.8,3.6-11.5c0.6-1.5,0.9-3.3,1.2-4.8c0-0.6,0-1.2,0-1.8c0-0.3-0.6-0.6-0.9-0.6c0.3-0.9,0.9-1.5,0.6-2.4
	c0.3-0.6,0.3-1.5,0-2.1c-0.9-3.9-2.7-7.5-5.7-10.6c-1.2,0-1.2-1.2-2.1-0.9h-0.3c-1.5-0.3-2.7-0.9-3.9-1.8h-0.6
	c-0.3,0-0.3,0.3-0.6,0.3c-0.9,0.3-2.1-1.2-3-0.9c-4.5-0.6-9.1-0.3-13.6,0.9c-10.3,2.4-16.6,6.9-27.5,14.5l0,0
	c-0.9,0.6-0.9,2.1-2.4,2.4c-1.5,0.3-4.5,3.9-5.4,5.1c-1.2,1.2-1.8,2.7-3.6,3.6c-1.2,0.3-0.3,1.8-2.4,2.1c0.3,0.6-1.8,4.5-3.6,4.8
	c-0.3-1.2,2.7-3.6,3.6-4.8c1.2-4.2,10-10,13-14.5h0.3c2.7-1.5,4.8-3.3,6.6-5.4c-3.9,0.9-9.1,6-11.2,8.8c0,0,0,0,0,0.3
	c0.3,0.6-1.5,1.8-2.4,2.1c-3.6,4.5-8.8,9.7-8.5,9.7c0-0.3-0.6,0-0.6,0l0.3,0.6c-0.6,0.9-0.9,2.4-1.8,3h-0.3c0.3-0.6,0.6-1.2,0.9-1.8
	c-1.5,0.3-9.1,11.8-8.8,13l0.3,0.3l-0.9,0.6c0,1.8-3,3.9-2.7,4.8c0,0,0,0,0.3,0c-3.3,2.4-2.4,6.6-3.6,9.7l-0.6,1.2l-0.3,0.6
	c-0.6,1.8-0.9,3.6-0.3,5.4c0,0.3,2.1,1.8,2.4,2.1l0.9,0.6l0.6,0.3c1.2,2.1,8.5,2.1,10.6,1.8c2.1,0.3,4.2,0.3,6.3-0.3
	c0.6,0,3.3-1.2,3.3-1.8c-0.9-3.3-13.3,3.6-15.7-3.9c-0.3-1.5,0.6-3,0-4.2l-0.3-0.6c-0.6-1.5,0.6-1.8,0-3.9c0.9-1.8,2.4-4.5,2.1-5.1
	c0,0,0-0.3-0.3-0.3c1.2-0.6,1.2-0.9,1.2-1.5c0-0.3,0-0.6-0.3-0.6c-0.6-1.8,4.2-6.6,4.5-10.3c0-0.3,1.5-0.9,2.1-2.1
	c0.6-0.9,0-3.9,1.8-4.5h0.3c-0.3,0.3-0.6,0.9-0.9,1.5c0.3,0,0.6,0.3,0.6,0.3c0.9-0.3,2.7-3,3.3-3.3c0.3-0.3,1.2-0.3,1.2-0.9h-0.6
	h-0.3c-0.3,0-0.6-0.9-0.9-1.2l0.3-0.6c0.6,0.3,1.2,0.6,1.8,0.6c1.5-0.3,3.6-3.9,4.8-5.1c0.9-1.2,1.2-2.7,1.2-3.9l0.3-0.3l0.3,0.3
	v0.6c0,0.3,0.9,0.6,1.2,0.6c2.1-1.2,4.2-3,5.7-5.1l-0.6-0.6l0.6-0.3c0.6,0,0.9,0.3,1.5,0.3c2.1-0.6,8.5-6.6,11.8-7.5
	c1.5-0.6,3-1.2,4.5-2.1c1.5-0.9,3-1.5,4.8-2.1c0.9-0.3,1.2-0.3,2.4-0.6l0.6-0.3c10.6-2.4,16-0.3,18.4,7.5c0.3,0.6,0.3,1.5,0.3,2.1
	c0.3,0.3,0.6,0.6,0.6,1.2c1.5,5.4-0.9,17.2-5.4,24.5c-0.3,0.6-6,11.5-6.6,12.1c-2.1,2.7-4.5,5.1-7.2,7.5h0.3
	c0.6-0.3,1.2-0.6,1.5-1.2c-0.6,1.5-1.8,2.7-3,3.6l-1.8,1.5c-3.9,3-8.5,8.8-11.5,9.4c-0.3,0-0.3,0-0.6,0c0.3-0.9,3-2.1,3.6-3
	c-2.1,0.6-3.3,2.7-5.4,3.3c-0.3,0-1.5,0.3-1.8,0c-1.2-3.6,0.6-7.5,0-9.7l-0.3-0.3c-1.8-6,2.4-15.1,0.6-21.1c-0.3-1.5,0.3-3,0-4.2
	c-0.3-0.3-0.6-0.6-0.6-0.9c-0.3-0.6,0.6-1.5,0.3-2.1c-0.6-1.8-2.1-1.5-2.4-2.7c-0.6-1.5-2.1-2.4-4.5-1.8c-2.1,0.6-2.7,5.1-2.4,6.6
	c0.9,3-0.9,5.7-0.9,8.5c0.3,3.6,0.3,7.2,0,10.6c-0.3,1.5-0.3,3.3,0.3,5.1c-0.9,3.6-0.9,7.2-0.3,10.6c-1.2,3.3,1.2,7.5,0.3,11.2
	l-0.3,0.6c1.2,3.9,0,7.5,0.9,10.6c0,0,0,0,0.3,0.3c0.9,2.4,1.2,22.6,1.8,25.1c0.9,3,2.1,6.9,7.2,5.7c2.4-0.6,0.6-2.4,2.1-3
	c0-1.5-0.3-3-0.6-4.5L507.7,115.9z M546.1,38l0.6,0.3v0.3c-1.2,0.9-0.9,3-1.8,3l-0.3-0.3C544.9,40.4,545.5,39.2,546.1,38
	 M541.5,46.5c0,0.3,0,0.6,0,0.6c-0.9,0.6-0.9,1.5-1.5,1.8l-0.3-0.3C540,47.7,540.6,47.1,541.5,46.5 M500.8,117.4v-0.6
	c0-0.3,0-0.6-0.3-0.6s0-0.6-0.3-0.6c-0.3-1.2-1.5-19.6-1.5-21.1c-0.3,0-0.3-0.3-0.3-0.6c-0.6-2.4,0.3-6.3-0.3-9.4
	c0-0.6-0.3-3.6,0.6-3.6l0.3,0.3c-0.3,1.8,0,3.6,0.3,5.7c1.2,4.5,0,3.6,0,6.9C499,95.4,502,115.9,500.8,117.4 M517.7,64.3L517.7,64.3
	c-0.9,0.3-3.9,2.4-3.6,3c0,0.3,0,0.3,0.3,0.3C515.9,67.3,516.8,65.2,517.7,64.3 M524.3,58.3h-0.9c-0.9,0.9-5.7,4.8-5.7,6
	C520.1,63.7,522.5,59.8,524.3,58.3 M550.9,61.9c0,0,0,0,0.3,0c-0.6,0-0.9,0-1.5,0.3C550.3,61.9,550.6,61.9,550.9,61.9 M537,63.4
	c0.3-0.3,0.6-0.6,0.9-0.9C537.6,62.8,537.3,62.8,537,63.4 M550.6,61.9c0.3,0,0.3,0,0.6,0C550.9,61.9,550.6,61.9,550.6,61.9
	 M536.4,64.3c0.3-0.3,0.6-0.3,0.6-0.6l-0.3-0.3L536.4,64.3L536.4,64.3z M644.8,50.1l2.4-2.7l0,0c0.3-0.9,0.9-1.8,1.8-2.7
	c-3,2.7-26,23.2-26.9,23.2c-2.4-0.3-4.5-0.9-6.6-2.1c-2.4-1.5-4.2-3.9-4.8-6.9c-0.3-2.4-0.3-4.8,0.3-7.2h-0.3
	c1.2-1.5,4.2-9.4,5.4-10c0.9-0.6,3.3-3.6,4.2-3.9c0.6,0,1.8,0.9,2.1,1.2c0.6,1.2,2.1,1.5,2.7,3.3c0.3,0.6,0.3,1.2,0,1.8l0,0
	c0.3,1.8-1.2,3.9-0.9,5.7v0.3c-0.6,0.9-0.9,2.1-0.9,3.3l0.3,0.3c0,0.3-0.3,0.3-0.3,0.6c0.3,0.9,2.7,1.5,3.6,1.2
	c2.1-0.9,3.9-2.4,5.4-3.9c1.5-1.8,0.9-7.5,0.9-10.9l-0.6-0.6l0.3-0.6c-2.4-1.2-1.2-2.4-5.1-3.9c-3.3-1.2-6.6-1.2-10,0
	c-4.8,0.9-2.7,2.4-6.9,3h-0.6c-1.8,0.3-6,7.8-5.7,9.1c0.3,1.5-1.8,0.6-1.2,5.1l0.3,0.3c-0.9,1.5-0.3,4.5,0.3,6
	c0.9,2.7,2.7,3.9,3.3,5.7l0,0c0.9-0.3,5.4,3.6,6.9,4.5c0.9,0.6,3,0.9,3.3,1.8c0.3,1.5-2.7,4.5-3.3,5.7c-0.9,1.5-1.5,3-1.8,4.5
	c-0.6,1.2-1.5,2.4-1.5,3.6c-0.3,2.1-3.6,3-2.4,7.8c0.3,0.9,1.5,1.5,2.4,1.8l0,0c1.5,0.6,3,0.6,4.5,0.3c3.6-0.9,6.9-3,9.7-5.7v0.3
	c1.2-0.6,3.3-3.6,5.4-4.8l0,0c0.3-1.2,1.2-2.1,2.1-3l0,0c1.2-0.6,1.8-2.1,1.5-3.3l-0.6-0.6c0-0.3,0-0.6,0-0.9
	c-0.3-1.2-2.4-2.4-3.6-3.3c-1.2-1.2-2.4-2.4-3.9-3.6c0.6-2.7,23.2-19.6,22.6-22.6C646.9,48,646,49.2,644.8,50.1 M617,78.8
	c-0.3,0-1.2,4.8-2.4,5.1l-0.3-0.3c-0.6-2.4,2.4-4.5,2.1-6.9c0.6-0.6,1.5-1.5,2.1-2.1c0-0.6,0-2.4,0.9-3c0.9,0.3,0.9,1.2,1.2,1.8
	C620.3,75.8,617,75.2,617,78.8L617,78.8z M626.1,76.7c-0.6,1.8-1.2,3.3-2.4,4.5v-0.3c-1.5,2.1-3.3,3.9-5.1,5.7c-0.3,0-0.6,0-0.6,0
	c0-0.3,0.6-1.2,0.6-1.2c-0.6-2.1,0-1.2,0-2.7h-0.3c1.8-0.3,1.2-3.9,1.2-4.8l-0.3,0.3c1.2-1.2,1.5-4.5,2.4-4.8
	C623,74.3,624.9,75.5,626.1,76.7 M604,85.1c-1.2,1.5-2.4,2.7-3.6,3.9c-0.9-0.3-0.9-0.3-0.9-0.6c0,0,0,0,0-0.3
	c-0.9-3.9-1.2-8.2-2.1-12.4c1.2-1.2-0.3-6-0.3-7.5c0-2.1,1.2-15.1,2.4-16.6l-0.3-0.3c-0.3-1.5,0.9-7.5,2.1-8.2
	c0.6-0.3,4.2-1.5,4.2-2.4c-1.2,0-2.7,0.3-3.9,0.3l-0.6-0.3c1.8-3.9,1.8-8.8,3.3-13.3c-0.3-1.5,0.9-2.1,0.9-3c-1.5-3-4.5-4.5-7.8-4.5
	c-1.2,0.3-1.2,1.8-1.2,3c0.3,0.6-1.2,3-1.2,4.2c0,2.7-1.8,5.7-1.5,8.2c0.3,2.7-1.5,5.4-1.2,7.5c0.3,2.1-4.5,3-8.2,3.6l-3,0.6
	c-0.3,0-1.8,0.3-1.8,0.9c0.3,1.5,2.1,1.5,3.9,1.2c1.2-0.3,2.4-0.6,3-0.6s4.2-0.6,4.2,0c-0.9,3-1.5,6.3-1.5,9.7
	c-0.6,1.8-0.6,3.9-0.3,5.7c0.3,0.9,0.3,1.8,0,3l-0.3,1.2l0,0c0,1.5,0,3.3,0.3,4.8l0.3,0.3c0,0.3-0.3,2.1-0.3,2.7
	c-0.3,1.2-0.3,2.1,0,3.3c-0.6,1.2-1.2,2.1-2.4,2.4c-5.7,0.9-6.9-10-5.4-13c0.9-1.5,0.3-3.6-1.2-4.5c-0.6-0.3-0.9-0.3-1.5-0.3
	c-3.3,0-7.5-3.9-8.5-6.9c-0.6-1.8-2.4-2.7-4.2-2.1c-1.8,0.6-2.7,2.1-2.1,3.9c1.5,5.7,1.8,11.8,1.2,17.8c-0.3,2.4-1.5,10.6-4.2,11.5
	c-0.9,0.3-1.8,1.2-2.1,2.1c-0.3,0-0.6,0-0.6,0.3h-0.6l0,0c0.6,0,1.2-0.6,1.5-1.2l-2.4-0.6c-0.3-0.3-0.3-0.6-0.3-0.9
	c-0.6-1.5-0.6-3-0.9-4.5c0-0.3-0.6-1.5,0-1.5c0.3,0,0.3-0.3,0.3-0.3c0-2.4-0.3-5.1-1.2-7.5c-0.3-3,0-6,0.6-9.1l0,0
	c0-0.6,0-1.5-0.3-2.1s-0.9-0.3-1.2-1.2l-0.3,0.3h-0.9l-0.6,0.3v-0.3c-0.6,0.3-0.9,0.6-1.5,0.9l0,0c-0.6,0.3-0.9,0.9-1.2,1.2h-0.3
	c-0.6,0.3-1.2,0.6-1.5,0.9c-1.2,1.5-4.5,6.6-3.9,8.2l-0.3,0.6l0.3,0.3l-0.3,1.2l-0.3-0.3v0.3l0.3,0.3c-0.9,0.9-2.1,2.7-1.8,3.9h0.3
	c-0.3,1.2-0.6,2.1-1.5,3h0.3v0.3c-0.9,0.6-1.2,1.5-1.2,2.7l0,0l-0.6,0.6h0.3c0.3,1.2-1.2,1.5-1.2,2.4l0,0c-0.9,0.6-1.5,1.8-1.2,3
	l0,0c0,0.3-0.9,1.2-0.9,1.8l0,0v0.6l-0.6,0.3c-1.8,1.2-3.3,3-4.2,4.8c-0.6,0.3-0.3-0.3-0.6-0.3c-0.6-5.1-0.3-10.3,1.5-15.1l0,0
	c0-1.8,0.6-3.6,1.5-5.1c0.3-2.1,0.9-3.9,1.5-5.7c-0.3-0.9,0.6-2.7,1.5-3.6l-0.6-0.3l0.3-0.3l-0.3-0.3c0.9-0.6,1.5-1.8,1.8-3
	l-0.6,0.3c-0.3-0.6,3-3,3.6-3.3c-0.6,0.3-0.9,0.6-1.2,1.2c0.9-0.6,1.8-1.2,2.7-1.5c1.2-0.3,2.7,0.6,3.6,0.9c2.1,0.6,4.2,0.6,6,0
	c-0.6,0-1.2,0-1.2-0.3l0.9-0.6l0.9,0.3c0-0.3-1.2-0.3-1.2-0.9l0.3-0.3h0.9l0,0l-0.3-0.3v-0.3c-0.3,0-0.6,0-0.9-0.3
	c-2.4-1.2-5.1-1.8-8.2-1.5l0.3,0.3c-0.3,0-0.6,0-0.9,0c-0.9,0.3-1.8,0.6-2.7,1.2c0,0,0-0.3,0,0c-0.6,0.3-1.2,0.6-1.5,1.2
	c-1.2,0.9-2.4,1.5-3.6,2.1c-2.4,2.4-4.5,4.8-6.3,7.8l-0.9,1.2l-0.6,3.6l-0.6,0.3l-0.3,1.2c-0.3,0.9-0.6,1.8-0.9,3
	c-0.9,2.7-1.5,5.7-1.8,8.8c-0.6,3-0.3,6.3,0.6,9.4c0.9,2.4,2.7,4.2,5.1,5.1l0.6-0.3c0.3,0,1.2,0,1.2,0c2.4-0.6,3.9-2.1,6.3-3l0,0
	c0.9-1.2,1.8-1.8,2.7-3c2.1-3,1.2-3,4.2-6.3c0.6-1.5,1.2-3,1.8-4.5c0-1.2,2.1-3.3,1.8-4.5c0,0,0.6,0.3,0.6,0.6
	c0.6,1.5,0.3,2.7,0.9,4.5v0.3h0.3c0.6,1.5,0.3,3,0.9,4.2c0.3,0.6,1.2,1.2,1.5,1.8c0.3,1.5,1.5,2.7,3,3c1.2,0.3,2.1,0.6,3.3,0.6v-0.3
	c0.6,0,0.9,0,1.5,0c0.3,0,0.9-0.6,1.2-0.6h0.3l0.6-0.6l0.3,0.3c0,0,0.3,0,0.3-0.3c0.6,0,0.9,0,1.5-0.3c5.4-1.8,7.2-8.2,8.2-13.3
	c0.9-4.2,1.2-8.5,0.9-12.7c0.9,0.6,1.8,0.9,2.7,1.2c-1.2,8.2,3,18.1,12.1,18.4c1.8,0,3.3-0.3,4.8-1.2c1.2,3.3,2.7,6.3,4.8,6.6
	c1.8,0.3,3,1.8,5.7,1.2c1.2-0.3,2.1-0.6,3-1.5c1.2-1.5,1.8-3.3,1.8-5.4C606.4,85.7,605.2,85.1,604,85.1 M549.1,62.2L549.1,62.2z"/>
<path class="st1" d="M65.2,19C29.3,19,0,48,0,83.9s29.3,65.2,65.2,65.2s65.2-29.3,65.2-65.2C130.1,48,101.1,19,65.2,19z M65.2,140.7
	c-31.4,0-56.7-25.4-56.7-56.7s25.4-56.7,56.7-56.7S122,52.5,122,83.9C121.6,115.3,96.3,140.7,65.2,140.7z M37.4,71.8h27.5v27.8h-8.2
	V96c-3.9,2.4-8.5,3.6-13,3.6c-0.6,0-0.9,0-1.5,0c-14.2-0.3-25.4-12.1-25.1-26.3C17.5,59.2,29.3,48,43.5,48.3c4.5,0,8.8,0.9,12.7,3
	v-3.6h8.2V61h-8.2v-0.3c-3.3-3.6-8.2-5.7-13-5.4c-10,0-18.1,8.2-18.4,18.4c0,10.3,8.2,18.7,18.4,18.7c4.8,0,9.7-1.8,13.3-5.1V80
	H37.1v-8.2H37.4z M112.9,71.5L112.9,71.5L112.9,71.5l0.3,12.7H105v-4.8H83.6v15.4h19.6v8.2H83.6v14.8h7.2v8.2H69.1v-8.2h6.3V79.4
	h-6.6v-8.2h44.1V71.5z M178.1,86.9L178.1,86.9h-0.6H178.1z M198.6,89.7c-3.3,0-6,0.9-6,5.4v12.1h-4.8l-1.8-5.7
	c-3.9,4.2-9.4,6.6-15.1,6.9c-16,0-26-9.7-26-24.5c0-14.5,10.6-24.5,26.9-24.5c3.6,0,7.2,0.3,10.6,1.5c1.5,0.6,3.3,1.2,5.1,1.5
	c1.2,0,1.5-1.2,1.5-1.8h2.4v13.6h-2.7c0-7.2-7.5-10.6-15.1-10.6c-13.3,0-17.8,9.7-17.8,21.1c0,9.4,3.9,19.9,15.4,19.9
	c5.7,0,12.7-3.6,12.7-9.1v-2.4c-0.6-3-5.1-3.3-6-3.3h0.3v-3h21.1v2.7C199.2,89.7,198.6,89.7,198.6,89.7z M221.9,85.4
	C221.6,85.4,221.6,85.4,221.9,85.4c-1.5,0-2.7-0.3-3.6-1.2c-1.2-1.5-0.9-3-2.4-3c-2.1,0-5.4,5.7-5.4,9.1V99c0,3.9,1.2,5.4,4.8,5.4
	h0.6v2.7h-19.9v-2.7h0.6c3.6,0,4.8-1.5,4.8-5.4V83.6c0-3.9-1.2-5.4-4.8-5.4h-0.6v-2.7h11.8c0.6,0,1.5-0.3,2.1-0.3v8.2h0.3
	c1.8-4.2,5.4-8.5,10.3-8.5c3,0,5.4,2.1,5.7,5.1v0.3C226.4,83,224.3,85.4,221.9,85.4z M242.1,74.6c-0.6,0-1.2,0-1.5,0
	c-9.1,0.3-16,7.8-15.7,16.9c0,0.6,0,1.2,0,1.5c0.6,9.1,8.2,15.7,17.2,15.4c8.8,0,14.2-4.2,16-11.8h-3.6c-1.2,4.8-5.7,8.2-10.6,8.2
	c-7.5,0-9.4-6.9-9.4-12.4h23.8v-0.9c0-0.6,0-0.9,0-1.5C257.8,80.9,250.5,74.3,242.1,74.6z M233.9,88.4c0-4.5,2.1-10.9,7.8-10.9
	s7.2,6.9,7.2,10.9H233.9z M276.5,74.6c-0.6,0-1.2,0-1.5,0c-9.1,0.3-16,7.8-15.7,16.9c0,0.6,0,1.2,0,1.5c0.6,9.1,8.2,15.7,17.2,15.4
	c8.5,0,14.2-4.2,16-11.8h-3.6c-1.2,4.8-5.7,8.2-10.6,8.2c-7.5,0-9.4-6.9-9.4-12.4h23.8v-0.9c0-0.6,0-0.9,0-1.5
	C292.2,80.9,285,74.3,276.5,74.6z M268.7,88.4c0-4.5,2.1-10.9,7.8-10.9s7.2,6.9,7.2,10.9H268.7z M333.6,105v2.1h-18.7v-2.7h0.6
	c2.4,0,3.9-0.9,3.9-3.9V85.7c0.3-2.7-1.5-5.1-4.2-5.7c-0.3,0-0.9,0-1.2,0c-4.5,0-7.5,3.6-7.5,8.5v11.5c0,3.3,0.6,4.2,3.3,4.2h1.2
	v2.7h-18.7v-2.7h0.6c3.6,0,4.8-1.5,4.8-5.4V83.3h-0.3c0-3.9-1.2-5.4-4.8-5.4h-0.6v-2.7h11.8c0.6,0,1.5-0.3,2.1-0.3v5.7
	c2.7-3.9,7.2-6.3,11.8-6.3c5.7,0,10.3,3.3,10.3,11.2v14.2c0,3.9,0.6,5.4,4.8,5.4H333.6z"/>
<path class="st2" d="M330.8,104.4h0.6c3.3,0,6-0.9,6-4.5v-32c0-3.6-2.7-4.2-6-4.2h-0.6V61h39.8v13.6h-3.3V74c0-5.7-1.8-9.1-8.2-9.1
	h-12.7v16.9h5.7c4.2,0,5.7-1.5,5.7-5.7v-1.5h3.3v17.8H358v-1.5c0-3.9-1.5-5.7-5.7-5.7h-5.7v13.3c0,4.5,2.7,5.4,6,5.4h0.6v3h-22.3
	V104.4z M401.5,99.6c0.6,4.2-2.7,8.2-6.9,8.5c-0.3,0-0.6,0-1.2,0c-3.6,0.3-6.6-2.4-6.9-6v-0.3l0,0c-2.4,3.9-6.6,6.3-11.2,6.3
	c-5.1,0-10.3-3-10.3-8.8c0-6.6,5.4-8.8,10.6-9.7c5.1-0.9,10.6-1.8,10.6-6.9c0.3-3-1.8-5.7-4.8-6c-0.3,0-0.6,0-0.9,0
	c-2.4,0-5.1,1.5-5.1,2.7c0,0.9,1.2,1.5,1.2,3.3c0,2.7-2.7,3.9-5.1,3.9c-2.4,0.3-4.5-1.8-4.8-4.2v-0.3c0-4.5,6-7.8,12.7-7.8
	c9.1,0,14.5,2.4,14.5,10v15.4c0,1.8,0.9,2.4,1.8,2.4c1.8,0,2.4-1.5,2.4-3.3v-3h2.7L401.5,99.6L401.5,99.6z M378.8,103.2
	c4.2-0.3,7.5-3.6,7.8-7.8V89c-3.6,3.3-12.1,3-12.1,9.1c-0.3,2.1,1.2,4.2,3.6,4.8C377.9,103.2,378.5,103.2,378.8,103.2 M398.8,104.4
	h0.6c3.6,0,4.8-1.5,4.8-5.4V83.6c0-3.9-1.2-5.4-4.8-5.4h-0.6v-2.7h11.8c0.6,0,1.5-0.3,2.1-0.3v8.2h0.3c1.8-4.2,5.4-8.8,10.3-8.8
	c3,0,5.4,2.1,5.7,5.1V80c0.3,2.7-1.8,4.8-4.5,5.1h-0.3c-1.2,0-2.4-0.3-3.3-1.2c-1.2-1.5-0.9-3-2.4-3c-2.1,0-5.4,5.7-5.4,9.1v8.5
	c0,3.9,1.2,5.4,4.8,5.4h0.6v2.7h-19.9v-2.1H398.8z M431.4,83.6c0-3.9-1.2-5.4-4.8-5.4h-0.6v-2.7h11.8c0.6,0,1.5-0.3,2.1-0.3v5.7l0,0
	c2.7-3.9,7.2-6.3,11.8-6.3c4.2-0.3,8.5,2.1,10,6.3c2.7-3.9,7.2-6.3,11.8-6.3c6,0,10.3,3.3,10.3,11.2v14.2c0,3.6,0.9,4.8,4.8,4.8h0.6
	v2.1h-18.7v-2.7h0.6c2.4,0,3.9-0.9,3.9-4.5V85.4c0.3-2.7-1.5-5.1-4.2-5.7c-0.3,0-0.9,0-1.2,0c-4.5,0-7.5,3.6-7.5,8.8v12.1
	c0,3,1.2,3.6,4.2,3.6h0.3v2.7h-17.5v-2.7h0.6c2.4,0,3.9-0.9,3.9-3.9V85.4c0.3-2.7-1.5-5.1-4.2-5.7c-0.3,0-0.9,0-1.2,0
	c-4.5,0-7.5,3.6-7.5,8.8v11.5c0,3.3,0.6,4.2,3.3,4.2h1.2v2.7h-18.7v-2.7h0.6c3.6,0,4.8-1.5,4.8-5.4V83.3h-0.3V83.6z"/>
</svg>
